<?xml version="1.0" standalone="no"?>
<!DOCTYPE svg PUBLIC "-//W3C//DTD SVG 1.1//EN" "http://www.w3.org/Graphics/SVG/1.1/DTD/svg11.dtd" >
<svg xmlns="http://www.w3.org/2000/svg">
<metadata>
This is a custom SVG webfont generated by Font Squirrel.
Copyright   : Topaz is Copyright  AmigaInc Truetype version is Copyright  2009 by dMG of Trueschool and Divine Stylers
Designer    : dMG of Trueschool and Divine Stylers
Foundry     : dMG of Trueschool and Divine Stylers
Foundry URL : httpwwwtrueschoolorg
</metadata>
<defs>
<font id="webfontgKhSgKW5" horiz-adv-x="1024" >
<font-face units-per-em="2048" ascent="2048" descent="0" />
<missing-glyph horiz-adv-x="500" />
<glyph unicode=" " />
<glyph unicode="!" d="M256 1792h128v256h256v-256h128v-512h-128v-512h-256v512h-128v512zM384 512h256v-256h-256v256z" />
<glyph unicode="&#x22;" d="M128 2048h256v-512h-256v512zM512 2048h256v-512h-256v512z" />
<glyph unicode="#" d="M0 1536h128v512h256v-512h128v512h256v-512h128v-256h-128v-256h128v-256h-128v-512h-256v512h-128v-512h-256v512h-128v256h128v256h-128v256zM512 1024v256h-128v-256h128z" />
<glyph unicode="$" d="M128 768h512v256h-384v256h-128v256h128v256h128v256h256v-256h256v-256h-512v-256h384v-256h128v-256h-128v-256h-128v-256h-256v256h-256v256z" />
<glyph unicode="%" d="M0 512h128v256h128v256h128v256h128v256h128v256h128v256h256v-256h-128v-256h-128v-256h-128v-256h-128v-256h-128v-256h-128v-256h-128v-256h-128v512zM0 1792h256v-512h-256v512zM640 768h256v-512h-256v512z" />
<glyph unicode="&#x26;" d="M128 1792h128v256h384v-256h128v-256h-128v-256h256v-256h-128v-512h128v-256h-256v256h-128v-256h-384v256h-128v512h128v768zM384 1024h-128v-512h256v256h-128v256zM512 1792h-128v-512h128v512zM512 1024h128v256h-128v-256z" />
<glyph unicode="'" d="M256 1536h128v512h256v-512h-128v-256h-256v256z" />
<glyph unicode="(" d="M640 512h-128v256h-128v768h128v256h128v128h128v128h256v-256h-128v-128h-128v-128h-128v-768h128v-128h128v-128h128v-256h-256v128h-128v128z" />
<glyph unicode=")" d="M0 512h128v128h128v128h128v768h-128v128h-128v128h-128v256h256v-128h128v-128h128v-256h128v-768h-128v-256h-128v-128h-128v-128h-256v256z" />
<glyph unicode="*" d="M128 1792h256v-256h256v256h256v-256h-128v-256h256v-256h-256v-256h128v-256h-256v256h-256v-256h-256v256h128v256h-256v256h256v256h-128v256z" />
<glyph unicode="+" d="M128 1280h256v512h256v-512h256v-256h-256v-512h-256v512h-256v256z" />
<glyph unicode="," d="M256 256h128v512h256v-512h-128v-256h-256v256z" />
<glyph unicode="-" d="M0 1280h1024v-256h-1024v256z" />
<glyph unicode="." d="M384 768h256v-512h-256v512z" />
<glyph unicode="/" d="M0 256v256h128v256h128v256h128v256h128v256h128v256h128v256h256v-256h-128v-256h-128v-256h-128v-256h-128v-256h-128v-256h-128v-256h-128v-256h-128v256z" />
<glyph unicode="0" d="M128 1792h128v256h512v-256h128v-1280h-128v-256h-512v256h-128v1280zM384 1280h128v256h128v256h-256v-512zM384 512h256v512h-128v-256h-128v-256z" />
<glyph unicode="1" d="M256 1792h128v256h256v-1536h256v-256h-768v256h256v1024h-128v256z" />
<glyph unicode="2" d="M640 768h256v-512h-768v512h128v256h128v256h256v512h-256v-256h-256v256h128v256h512v-256h128v-512h-128v-256h-256v-256h-128v-256h256v256z" />
<glyph unicode="3" d="M128 768h256v-256h256v512h-256v256h256v512h-256v-256h-256v256h128v256h512v-256h128v-512h-128v-256h128v-512h-128v-256h-512v256h-128v256z" />
<glyph unicode="4" d="M128 1280v256h128v256h128v256h384v-1024h128v-256h-128v-256h128v-256h-512v256h128v256h-512v512h128zM512 1536h-128v-256h-128v-256h256v512z" />
<glyph unicode="5" d="M128 768h256v-256h256v768h-512v768h768v-256h-512v-256h384v-256h128v-768h-128v-256h-512v256h-128v256z" />
<glyph unicode="6" d="M384 1280h384v-256h128v-512h-128v-256h-512v256h-128v1024h128v256h128v256h384v-256h-256v-256h-128v-256zM384 512h256v512h-256v-512z" />
<glyph unicode="7" d="M384 1024h128v256h128v512h-256v-256h-256v512h768v-768h-128v-256h-128v-768h-256v768z" />
<glyph unicode="8" d="M256 512h-128v512h128v256h-128v512h128v256h512v-256h128v-512h-128v-256h128v-512h-128v-256h-512v256zM640 1792h-256v-512h256v512zM640 1024h-256v-512h256v512z" />
<glyph unicode="9" d="M256 512h256v256h128v256h-384v256h-128v512h128v256h512v-256h128v-1024h-128v-256h-128v-256h-384v256zM384 1280h256v512h-256v-512z" />
<glyph unicode=":" d="M384 1792h256v-512h-256v512zM384 768h256v-512h-256v512z" />
<glyph unicode=";" d="M256 256h128v512h256v-512h-128v-256h-256v256zM384 1792h256v-512h-256v512z" />
<glyph unicode="&#x3c;" d="M640 1280v-256h128v-256h128v-256h128v-256h-256v256h-128v256h-128v256h-128v256h128v256h128v256h128v256h256v-256h-128v-256h-128v-256h-128z" />
<glyph unicode="=" d="M0 1536h1024v-256h-1024v256zM0 1024h1024v-256h-1024v256z" />
<glyph unicode="&#x3e;" d="M384 1280h-128v256h-128v256h-128v256h256v-256h128v-256h128v-256h128v-256h-128v-256h-128v-256h-128v-256h-256v256h128v256h128v256h128v256z" />
<glyph unicode="?" d="M384 1024h128v256h128v512h-256v-256h-256v256h128v256h512v-256h128v-512h-128v-256h-128v-256h-256v256zM384 512h256v-256h-256v256z" />
<glyph unicode="@" d="M384 1536h256v256h-384v-1280h384v-256h-512v256h-128v1280h128v256h640v-256h128v-1024h-512v768z" />
<glyph unicode="A" d="M768 768h-512v-512h-256v512h128v512h128v512h128v256h256v-256h128v-512h128v-512h128v-512h-256v512zM640 1280h-256v-256h256v256z" />
<glyph unicode="B" d="M768 1280v-256h128v-512h-128v-256h-768v256h128v1280h-128v256h768v-256h128v-512h-128zM640 1792h-256v-512h256v512zM384 512h256v512h-256v-512z" />
<glyph unicode="C" d="M0 1536h128v256h128v256h512v-256h128v-256h-256v256h-256v-256h-128v-768h128v-256h256v256h256v-256h-128v-256h-512v256h-128v256h-128v768z" />
<glyph unicode="D" d="M0 2048h640v-256h128v-256h128v-768h-128v-256h-128v-256h-640v256h128v1280h-128v256zM384 1792v-1280h128v256h128v768h-128v256h-128z" />
<glyph unicode="E" d="M384 512h256v256h256v-512h-896v256h128v1280h-128v256h896v-512h-256v256h-256v-512h256v-256h-256v-512z" />
<glyph unicode="F" d="M384 512h128v-256h-512v256h128v1280h-128v256h896v-512h-256v256h-256v-512h256v-256h-256v-512z" />
<glyph unicode="G" d="M0 1536h128v256h128v256h512v-256h128v-256h-256v256h-256v-256h-128v-768h128v-256h256v512h-128v256h384v-1024h-640v256h-128v256h-128v768z" />
<glyph unicode="H" d="M384 256h-256v1792h256v-768h256v768h256v-1792h-256v768h-256v-768z" />
<glyph unicode="I" d="M128 2048h768v-256h-256v-1280h256v-256h-768v256h256v1280h-256v256z" />
<glyph unicode="J" d="M128 1024h256v-512h256v1280h-128v256h384v-1536h-128v-256h-512v256h-128v512z" />
<glyph unicode="K" d="M640 768h-128v256h-128v-768h-384v256h128v1280h-128v256h384v-768h128v256h128v512h256v-512h-128v-256h-128v-256h128v-256h128v-512h-256v512z" />
<glyph unicode="L" d="M640 768h128v256h128v-768h-896v256h128v1280h-128v256h512v-256h-128v-1280h256v256z" />
<glyph unicode="M" d="M384 1024h-128v-768h-256v1792h128v-256h128v-256h128v-256h128v256h128v256h128v256h128v-1792h-256v768h-128v-256h-128v256z" />
<glyph unicode="N" d="M512 1024h-128v256h-128v-1024h-256v1792h256v-256h128v-256h128v-256h128v768h256v-1792h-256v512h-128v256z" />
<glyph unicode="O" d="M256 512h-128v256h-128v768h128v256h128v256h384v-256h128v-256h128v-768h-128v-256h-128v-256h-384v256zM512 768h128v768h-128v256h-128v-256h-128v-768h128v-256h128v256z" />
<glyph unicode="P" d="M128 1792h-128v256h768v-256h128v-512h-128v-256h-384v-512h128v-256h-512v256h128v1280zM384 1792v-512h256v512h-256z" />
<glyph unicode="Q" d="M256 512h-128v256h-128v768h128v256h128v256h384v-256h128v-256h128v-768h-128v-512h128v-256h-256v256h-384v256zM512 768h128v768h-128v256h-128v-256h-128v-768h128v-256h128v256z" />
<glyph unicode="R" d="M0 512h128v1280h-128v256h768v-256h128v-512h-128v-512h128v-256h128v-256h-256v256h-128v256h-128v256h-128v-768h-384v256zM384 1792v-512h256v512h-256z" />
<glyph unicode="S" d="M128 768h256v-256h256v256h-128v256h-256v256h-128v512h128v256h512v-256h128v-256h-256v256h-256v-256h128v-256h128v-256h256v-512h-128v-256h-512v256h-128v256z" />
<glyph unicode="T" d="M256 512h128v1280h-128v-256h-128v512h768v-512h-128v256h-128v-1280h128v-256h-512v256z" />
<glyph unicode="U" d="M640 2048h256v-1792h-640v256h-128v1536h256v-1536h256v1536z" />
<glyph unicode="V" d="M256 1024h-128v512h-128v512h256v-512h128v-512h256v512h128v512h256v-512h-128v-512h-128v-512h-128v-256h-256v256h-128v512z" />
<glyph unicode="W" d="M384 512h-128v-256h-256v1792h256v-1024h128v256h128v-256h128v1024h256v-1792h-256v256h-128v256h-128v-256z" />
<glyph unicode="X" d="M768 512h-128v256h-256v-256h-128v-256h-256v256h128v256h128v256h128v256h-128v256h-128v256h-128v256h256v-256h128v-256h256v256h128v256h256v-256h-128v-256h-128v-256h-128v-256h128v-256h128v-256h128v-256h-256v256z" />
<glyph unicode="Y" d="M256 1280h-128v256h-128v512h256v-512h128v-256h256v256h128v512h256v-512h-128v-256h-128v-256h-128v-512h128v-256h-512v256h128v512h-128v256z" />
<glyph unicode="Z" d="M768 1024h128v-768h-896v256h128v256h128v256h128v256h128v256h128v256h-384v-256h-128v-256h-128v768h896v-512h-128v-256h-128v-256h-128v-256h-128v-256h256v256h128v256z" />
<glyph unicode="[" d="M256 2048h512v-128h256v-128h-512v-1280h512v-128h-256v-128h-512v1792z" />
<glyph unicode="\" d="M768 512h-128v256h-128v256h-128v256h-128v256h-128v256h-128v256h256v-256h128v-256h128v-256h128v-256h128v-256h128v-256h128v-512h-128v256h-128v256z" />
<glyph unicode="]" d="M256 384h-256v128h512v1280h-512v128h256v128h512v-1792h-512v128z" />
<glyph unicode="^" d="M640 1268h-128v256h-128v-256h-128v-244h-256v244h128v256h128v256h128v256h128v-256h128v-256h128v-256h128v-256h-256v256z" />
<glyph unicode="_" d="M0 256h1024v-256h-1024v256z" />
<glyph unicode="`" d="M384 2048h256v-512h128v-256h-256v256h-128v512z" />
<glyph unicode="a" d="M256 1536h512v-256h128v-768h128v-256h-256v256h-128v256h-256v256h256v256h-384v256zM128 768h256v-256h256v-256h-384v256h-128v256z" />
<glyph unicode="b" d="M384 512h256v768h-128v256h256v-256h128v-768h-128v-256h-512v256h-128v1280h-128v256h384v-768h128v-256h-128v-512z" />
<glyph unicode="c" d="M256 1536h512v-256h128v-256h-256v256h-256v-768h256v256h256v-256h-128v-256h-512v256h-128v768h128v256z" />
<glyph unicode="d" d="M128 1280h128v256h256v-256h128v512h-128v256h384v-1536h128v-256h-256v256h-128v512h-128v256h-128v-768h256v-256h-384v256h-128v768z" />
<glyph unicode="e" d="M256 1536h512v-256h128v-512h-512v-256h384v-256h-512v256h-128v768h128v256zM640 1280h-256v-256h256v256z" />
<glyph unicode="f" d="M128 1280h128v512h128v256h384v-256h128v-256h-256v256h-128v-512h128v-256h-128v-512h128v-256h-512v256h128v512h-128v256z" />
<glyph unicode="g" d="M768 1536h256v-256h-128v-512h-128v-256h128v-256h-128v-256h-640v256h-128v256h256v-256h384v256h-384v256h-128v512h128v256h384v-256h128v256zM640 1280h-256v-512h256v512z" />
<glyph unicode="h" d="M384 256h-384v256h128v1280h-128v256h384v-768h128v-256h-128v-768zM512 1536h256v-256h128v-1024h-256v1024h-128v256z" />
<glyph unicode="i" d="M256 1536h384v-1024h128v-256h-512v256h128v768h-128v256zM384 2048h256v-256h-256v256z" />
<glyph unicode="j" d="M128 512h256v-256h256v1280h256v-1280h-128v-256h-512v256h-128v256zM640 2048h256v-256h-256v256z" />
<glyph unicode="k" d="M512 1280h128v256h256v-256h-128v-256h-128v-256h128v-256h128v-256h-256v256h-128v256h-128v-512h-384v256h128v1280h-128v256h384v-1024h128v256z" />
<glyph unicode="l" d="M256 2048h384v-1536h128v-256h-512v256h128v1280h-128v256z" />
<glyph unicode="m" d="M512 1024h-128v-768h-256v1280h256v-256h128v-256h128v-256h-128v256zM640 1536h256v-256h128v-1024h-256v768h-128v512z" />
<glyph unicode="n" d="M384 256h-256v1280h640v-256h128v-1024h-256v1024h-256v-1024z" />
<glyph unicode="o" d="M128 1280h128v256h512v-256h128v-768h-128v-256h-512v256h-128v768zM640 1280h-256v-768h256v768z" />
<glyph unicode="p" d="M384 1536h384v-256h128v-512h-128v-256h-384v-256h128v-256h-512v256h128v1024h-128v256h256v-256h128v256zM384 768h256v512h-256v-512z" />
<glyph unicode="q" d="M640 512h-384v256h-128v512h128v256h512v-256h128v-1024h128v-256h-384v512zM640 1280h-256v-512h256v512zM896 1536h128v-256h-128v256z" />
<glyph unicode="r" d="M384 512h128v-256h-512v256h128v768h-128v256h384v-256h128v-256h-128v-512zM512 1536h256v-256h128v-512h-256v512h-128v256z" />
<glyph unicode="s" d="M256 1536h640v-256h-512v-256h384v-256h128v-256h-128v-256h-640v256h512v256h-384v256h-128v256h128v256z" />
<glyph unicode="t" d="M768 256h-256v256h-128v768h-128v256h128v256h105v256h151v-512h256v-256h-256v-768h128v-256zM768 768h128v-256h-128v256z" />
<glyph unicode="u" d="M128 1536h256v-1024h256v-256h-384v256h-128v1024zM640 1536h256v-1024h128v-256h-256v256h-128v1024z" />
<glyph unicode="v" d="M640 1536h256v-768h-128v-256h-128v-256h-256v256h-128v256h-128v768h256v-768h256v768z" />
<glyph unicode="w" d="M512 1280h128v-512h128v768h256v-768h-128v-512h-256v512h-128v512zM128 1536h256v-768h128v-512h-256v512h-128v768z" />
<glyph unicode="x" d="M128 1536h256v-256h128v-256h128v256h128v256h256v-256h-128v-256h-128v-256h128v-256h128v-256h-256v256h-128v256h-128v-256h-128v-256h-256v256h128v256h128v256h-128v256h-128v256z" />
<glyph unicode="y" d="M640 1536h256v-768h-128v-256h-128v-256h-128v-256h-384v256h256v256h-128v256h-128v768h256v-768h256v768z" />
<glyph unicode="z" d="M128 1536h768v-256h-128v-256h-128v-256h-104v-256h232v256h128v-512h-768v256h128v256h128v256h128v256h-256v-256h-128v512z" />
<glyph unicode="{" d="M896 256h-384v256h-128v512h-256v256h256v512h128v256h384v-128h128v-256h-128v128h-256v-512h-128v-256h128v-512h256v128h128v-256h-128v-128z" />
<glyph unicode="|" d="M384 2048h256v-2048h-256v2048z" />
<glyph unicode="}" d="M0 640h128v-128h256v512h128v256h-128v512h-256v-128h-128v256h128v128h384v-256h128v-512h256v-256h-256v-512h-128v-256h-384v128h-128v256z" />
<glyph unicode="~" d="M128 2048h384v-256h256v-256h-384v256h-256v256zM768 2048h128v-256h-128v256zM0 1792h128v-256h-128v256z" />
<glyph d="M128 2048h768v-1792h-768v1792zM384 512h256v1280h-256v-1280z" />
<glyph d="M128 2048h768v-1792h-768v1792zM384 512h256v1280h-256v-1280z" />
<glyph d="M128 2048h768v-1792h-768v1792zM384 512h256v1280h-256v-1280z" />
<glyph d="M128 2048h768v-1792h-768v1792zM384 512h256v1280h-256v-1280z" />
<glyph unicode="&#x85;" d="M128 2048h768v-1792h-768v1792zM384 512h256v1280h-256v-1280z" />
<glyph d="M128 2048h768v-1792h-768v1792zM384 512h256v1280h-256v-1280z" />
<glyph d="M128 2048h768v-1792h-768v1792zM384 512h256v1280h-256v-1280z" />
<glyph d="M128 2048h768v-1792h-768v1792zM384 512h256v1280h-256v-1280z" />
<glyph d="M128 2048h768v-1792h-768v1792zM384 512h256v1280h-256v-1280z" />
<glyph d="M128 2048h768v-1792h-768v1792zM384 512h256v1280h-256v-1280z" />
<glyph d="M128 2048h768v-1792h-768v1792zM384 512h256v1280h-256v-1280z" />
<glyph d="M128 2048h768v-1792h-768v1792zM384 512h256v1280h-256v-1280z" />
<glyph d="M128 2048h768v-1792h-768v1792zM384 512h256v1280h-256v-1280z" />
<glyph d="M128 2048h768v-1792h-768v1792zM384 512h256v1280h-256v-1280z" />
<glyph d="M128 2048h768v-1792h-768v1792zM384 512h256v1280h-256v-1280z" />
<glyph d="M128 2048h768v-1792h-768v1792zM384 512h256v1280h-256v-1280z" />
<glyph d="M128 2048h768v-1792h-768v1792zM384 512h256v1280h-256v-1280z" />
<glyph d="M128 2048h768v-1792h-768v1792zM384 512h256v1280h-256v-1280z" />
<glyph d="M128 2048h768v-1792h-768v1792zM384 512h256v1280h-256v-1280z" />
<glyph d="M128 2048h768v-1792h-768v1792zM384 512h256v1280h-256v-1280z" />
<glyph d="M128 2048h768v-1792h-768v1792zM384 512h256v1280h-256v-1280z" />
<glyph d="M128 2048h768v-1792h-768v1792zM384 512h256v1280h-256v-1280z" />
<glyph d="M128 2048h768v-1792h-768v1792zM384 512h256v1280h-256v-1280z" />
<glyph d="M128 2048h768v-1792h-768v1792zM384 512h256v1280h-256v-1280z" />
<glyph d="M128 2048h768v-1792h-768v1792zM384 512h256v1280h-256v-1280z" />
<glyph unicode="&#xa0;" />
<glyph unicode="&#xa1;" d="M256 1024h128v512h256v-512h128v-512h-128v-256h-256v256h-128v512zM384 2048h256v-256h-256v256z" />
<glyph unicode="&#xa2;" d="M128 1536h128v256h256v256h256v-256h128v-256h-128v-512h128v-256h-128v-256h-256v256h-256v256h-128v512zM384 1536v-512h128v512h-128z" />
<glyph unicode="&#xa3;" d="M128 1280h128v512h128v256h384v-256h128v-256h-256v256h-128v-512h128v-256h-128v-512h384v-256h-768v256h128v512h-128v256z" />
<glyph unicode="&#xa4;" d="M768 1024h-512v256h-128v256h128v256h-128v256h128v-256h512v-256h128v-256h-128v-256h128v-256h-128v256zM640 1536h-256v-256h256v256zM768 2048h128v-256h-128v256zM128 1024h128v-256h-128v256z" />
<glyph unicode="&#xa5;" d="M256 1024h128v256h-128v256h-128v256h-128v256h256v-256h128v-256h256v256h128v256h256v-256h-128v-256h-128v-256h-128v-256h128v-256h-128v-256h128v-256h-512v256h128v256h-128v256z" />
<glyph unicode="&#xa6;" d="M384 2048h256v-768h-256v768zM384 1024h256v-768h-256v768z" />
<glyph unicode="&#xa7;" d="M768 768h-512v256h-128v256h128v256h-128v256h128v-256h512v-256h128v-256h-128v-256h128v-256h-128v256zM256 2048h512v-256h-512v256zM256 512h512v-256h-512v256zM384 1280v-256h256v256h-256z" />
<glyph unicode="&#xa8;" d="M128 2048h256v-256h-256v256zM640 2048h256v-256h-256v256z" />
<glyph unicode="&#xa9;" d="M0 1792h128v-1536h768v-256h-768v256h-128v1536zM896 1792h-768v256h768v-256h128v-1536h-128v1536zM256 1280h128v256h384v-256h-256v-512h256v-256h-384v256h-128v512z" />
<glyph unicode="&#xaa;" d="M256 2048h256v-256h128v-768h-640v512h128v-256h384v512h-256v256zM0 768h768v-256h-768v256zM128 1792h128v-256h-128v256z" />
<glyph unicode="&#xab;" d="M768 768h-128v256h-128v256h128v256h128v256h256v-256h-128v-256h-128v-256h128v-256h128v-256h-256v256zM0 1280h128v256h128v256h256v-256h-128v-256h-128v-256h128v-256h128v-256h-256v256h-128v256h-128v256z" />
<glyph unicode="&#xac;" d="M0 2048h896v-128h128v-384h-256v256h-640v128h-128v128z" />
<glyph unicode="&#xad;" d="M128 1536h768v-512h-768v512z" />
<glyph unicode="&#xae;" d="M896 1792h-768v256h768v-256h128v-1536h-128v1536zM128 256h768v-256h-768v256h-128v1536h128v-1536zM512 768h-128v-256h-128v1024h384v-512h-128v-256h128v-256h-128v256z" />
<glyph unicode="&#xaf;" d="M0 2048h1024v-256h-1024v256z" />
<glyph unicode="&#xb0;" d="M256 2048h512v-256h128v-256h-128v-256h-512v256h-128v256h128v256zM384 1792v-256h256v256h-256z" />
<glyph unicode="&#xb1;" d="M128 1536h256v512h256v-512h256v-256h-256v-512h-256v512h-256v256zM128 512h768v-256h-768v256z" />
<glyph unicode="&#xb2;" d="M0 1024h128v256h128v256h128v256h-384v256h512v-256h128v-256h-128v-256h-128v-256h256v-256h-640v256z" />
<glyph unicode="&#xb3;" d="M0 1024h384v256h-128v256h128v256h-384v256h512v-256h128v-256h-128v-256h128v-256h-128v-256h-512v256z" />
<glyph unicode="&#xb4;" d="M256 1815h128v233h256v-256h-128v-256h-256v279z" />
<glyph unicode="&#xb5;" d="M768 512h-128v-256h-384v-256h-256v1536h256v-768h128v-256h128v256h128v768h256v-1280h-128v256z" />
<glyph unicode="&#xb6;" d="M640 1792h-128v-1536h-128v768h-256v256h-128v512h128v256h768v-256h-128v-1536h-128v1536z" />
<glyph unicode="&#xb7;" d="M384 1792h256v-512h-256v512z" />
<glyph unicode="&#xb8;" d="M256 256h128v256h256v-256h-128v-256h-256v256z" />
<glyph unicode="&#xb9;" d="M128 1792h128v256h256v-1280h-256v768h-128v256z" />
<glyph unicode="&#xba;" d="M0 768h640v-256h-640v256zM512 1280v-256h-384v256h-128v512h128v-512h384zM512 1792h-384v256h384v-256h128v-512h-128v512z" />
<glyph unicode="&#xbb;" d="M0 768h128v256h128v256h-128v256h-128v256h256v-256h128v-256h128v-256h-128v-256h-128v-256h-256v256zM512 1792h256v-256h128v-256h128v-256h-128v-256h-128v-256h-256v256h128v256h128v256h-128v256h-128v256z" />
<glyph unicode="&#xbc;" d="M128 1792h128v256h128v-1024h128v256h128v256h128v256h256v-256h-128v-256h-128v-256h-128v-256h-128v-256h-128v-256h-256v256h128v256h128v256h-128v512h-128v256zM896 1024h128v-1024h-128v256h-256v256h128v256h128v256z" />
<glyph unicode="&#xbd;" d="M768 1024h-128v-256h-128v-256h-128v-256h-256v256h128v256h128v256h-128v512h-128v256h128v256h128v-1024h128v256h128v256h128v256h256v-256h-128v-256h-128v-256h256v-512h-128v256h-128v256zM640 256h128v256h128v-256h128v-256h-384v256z" />
<glyph unicode="&#xbe;" d="M128 1536h128v256h-256v256h256v-256h128v-768h128v256h128v256h128v256h256v-256h-128v-256h-128v-256h-128v-256h-128v-256h-128v-256h-256v256h128v256h128v256h-128v256h-128v256zM896 256h-256v256h128v256h128v256h128v-1024h-128v256zM0 1024h256v-256h-256v256z " />
<glyph unicode="&#xbf;" d="M128 1024h128v256h128v256h256v-256h-128v-256h-128v-512h256v256h256v-256h-128v-256h-512v256h-128v512zM384 2048h256v-256h-256v256z" />
<glyph unicode="&#xc0;" d="M256 2048h256v-256h128v-256h128v-256h128v-512h128v-512h-256v512h-512v-512h-256v512h128v512h128v256h256v256h-256v256zM640 1280h-256v-256h256v256z" />
<glyph unicode="&#xc1;" d="M256 1536h128v256h128v-256h256v-256h128v-512h128v-512h-256v512h-512v-512h-256v512h128v512h128v256zM512 2048h256v-256h-256v256zM640 1280h-256v-256h256v256z" />
<glyph unicode="&#xc2;" d="M384 2048h256v-256h128v-512h128v-512h128v-512h-256v512h-512v-512h-256v512h128v512h128v512h128v256zM640 1280h-256v-256h256v256zM384 1536h256v256h-256v-256z" />
<glyph unicode="&#xc3;" d="M128 2048h384v-256h384v-256h-128v-256h128v-512h128v-512h-256v512h-512v-512h-256v512h128v512h128v256h256v256h-384v256zM640 1280h-256v-256h256v256zM896 2048h128v-256h-128v256zM0 1792h128v-256h-128v256z" />
<glyph unicode="&#xc4;" d="M256 1536h128v256h256v-256h128v-256h128v-512h128v-512h-256v512h-512v-512h-256v512h128v512h128v256zM768 2048h256v-256h-256v256zM640 1280h-256v-256h256v256zM0 2048h256v-256h-256v256z" />
<glyph unicode="&#xc5;" d="M384 2048h256v-256h256v-256h-128v-256h128v-512h128v-512h-256v512h-512v-512h-256v512h128v512h128v256h-128v256h256v256zM640 1280h-256v-256h256v256zM384 1536h256v256h-256v-256z" />
<glyph unicode="&#xc6;" d="M768 512h256v-256h-512v512h-256v-512h-256v512h128v512h128v512h128v256h640v-256h-256v-512h256v-256h-256v-512zM384 1280v-256h128v256h-128z" />
<glyph unicode="&#xc7;" d="M256 768h-128v256h-128v512h128v256h128v256h512v-256h128v-256h-256v256h-256v-256h-128v-512h128v-256h256v256h256v-256h-128v-256h-128v-256h-128v256h-256v256zM256 256h256v-256h-256v256z" />
<glyph unicode="&#xc8;" d="M384 512h512v-256h-896v256h128v768h-128v256h384v256h-256v256h256v-256h128v-256h384v-256h-512v-256h256v-256h-256v-256z" />
<glyph unicode="&#xc9;" d="M256 1792h128v-256h512v-256h-512v-256h256v-256h-256v-256h512v-256h-896v256h128v768h-128v256h256v256zM384 2048h256v-256h-256v256z" />
<glyph unicode="&#xca;" d="M256 2048h256v-256h128v-256h256v-256h-512v-256h256v-256h-256v-256h512v-256h-896v256h128v768h-128v256h128v256h128v256zM256 1536h256v256h-256v-256z" />
<glyph unicode="&#xcb;" d="M384 512h512v-256h-896v256h128v768h-128v256h896v-256h-512v-256h256v-256h-256v-256zM128 2048h256v-256h-256v256zM640 2048h256v-256h-256v256z" />
<glyph unicode="&#xcc;" d="M256 2048h256v-256h128v-256h256v-256h-256v-768h256v-256h-768v256h256v768h-256v256h384v256h-256v256z" />
<glyph unicode="&#xcd;" d="M128 1536h256v256h128v-256h384v-256h-256v-768h256v-256h-768v256h256v768h-256v256zM512 2048h256v-256h-256v256z" />
<glyph unicode="&#xce;" d="M384 2048h256v-256h128v-256h128v-256h-256v-768h256v-256h-768v256h256v768h-256v256h128v256h128v256zM384 1536h256v256h-256v-256z" />
<glyph unicode="&#xcf;" d="M128 1536h768v-256h-256v-768h256v-256h-768v256h256v768h-256v256zM640 2048h256v-256h-256v256zM128 2048h256v-256h-256v256z" />
<glyph unicode="&#xd0;" d="M0 1280h128v512h-128v256h640v-256h128v-256h128v-768h-128v-256h-128v-256h-640v256h128v512h-128v256zM384 512h128v256h128v768h-128v256h-128v-512h128v-256h-128v-512z" />
<glyph unicode="&#xd1;" d="M384 1024h128v-256h128v768h-128v256h-384v256h384v-256h384v-1536h-256v256h-128v256h-128v256h-128v-768h-256v1536h128v-256h128v-256h128v-256zM896 2048h128v-256h-128v256z" />
<glyph unicode="&#xd2;" d="M256 512h-128v256h-128v256h128v256h128v256h256v256h-256v256h256v-256h128v-256h128v-256h128v-256h128v-256h-128v-256h-128v-256h-512v256zM384 512h256v256h128v256h-128v256h-256v-256h-128v-256h128v-256z" />
<glyph unicode="&#xd3;" d="M256 512h-128v256h-128v256h128v256h128v256h128v256h128v-256h256v-256h128v-256h128v-256h-128v-256h-128v-256h-512v256zM384 512h256v256h128v256h-128v256h-256v-256h-128v-256h128v-256zM512 2048h256v-256h-256v256z" />
<glyph unicode="&#xd4;" d="M384 2048h256v-256h128v-512h128v-256h128v-256h-128v-256h-128v-256h-512v256h-128v256h-128v256h128v256h128v512h128v256zM384 512h256v256h128v256h-128v256h-256v-256h-128v-256h128v-256zM384 1536h256v256h-256v-256z" />
<glyph unicode="&#xd5;" d="M128 2048h384v-256h384v-256h-128v-256h128v-256h128v-256h-128v-256h-128v-256h-512v256h-128v256h-128v256h128v256h128v256h256v256h-384v256zM384 512h256v256h128v256h-128v256h-256v-256h-128v-256h128v-256zM0 1792h128v-256h-128v256zM896 2048h128v-256h-128 v256z" />
<glyph unicode="&#xd6;" d="M0 2048h256v-256h512v-256h128v-256h128v-512h-128v-256h-128v-256h-512v256h-128v256h-128v512h128v256h128v256h-256v256zM640 1536h-256v-256h-128v-512h128v-256h256v256h128v512h-128v256zM768 2048h256v-256h-256v256z" />
<glyph unicode="&#xd7;" d="M128 768h128v256h128v256h-128v256h-128v256h256v-256h128v-256h128v256h128v256h256v-256h-128v-256h-128v-256h128v-256h128v-256h-256v256h-128v256h-128v-256h-128v-256h-256v256z" />
<glyph unicode="&#xd8;" d="M256 2048h512v-256h128v-256h128v-768h-128v-256h-128v-256h-512v256h-128v256h-128v768h128v256h128v256zM640 1280v-256h-128v-256h-128v-256h256v256h128v512h-128zM512 1536h128v256h-256v-256h-128v-512h128v256h128v256zM896 2048h128v-256h-128v256zM0 512h128 v-256h-128v256z" />
<glyph unicode="&#xd9;" d="M256 2048h256v-256h128v-256h256v-1280h-640v256h-128v1024h256v-1024h256v1024h-128v256h-256v256z" />
<glyph unicode="&#xda;" d="M128 1536h256v-1024h256v1024h256v-1280h-640v256h-128v1024zM512 2048h256v-256h-256v256zM384 1792h128v-256h-128v256z" />
<glyph unicode="&#xdb;" d="M384 2048h256v-256h128v-256h128v-1280h-640v256h-128v1024h128v256h128v256zM384 512h256v1280h-256v-1280z" />
<glyph unicode="&#xdc;" d="M128 1536h256v-1024h256v1024h256v-1280h-640v256h-128v1024zM640 2048h256v-256h-256v256zM128 2048h256v-256h-256v256z" />
<glyph unicode="&#xdd;" d="M0 1536h256v-256h128v-256h256v256h128v256h256v-256h-128v-256h-128v-256h-128v-256h128v-256h-512v256h128v256h-128v256h-128v256h-128v256zM640 2048h256v-256h-256v256zM512 1792h128v-256h-128v256z" />
<glyph unicode="&#xde;" d="M384 256h128v-256h-512v256h128v1536h-128v256h512v-256h-128v-256h512v-256h128v-512h-128v-256h-512v-256zM768 1280h-384v-512h384v512z" />
<glyph unicode="&#xdf;" d="M512 512h128v512h-128v256h128v512h-256v-1792h-256v2048h640v-256h128v-512h-128v-256h128v-512h-128v-256h-256v256z" />
<glyph unicode="&#xe0;" d="M768 512h-128v256h-256v256h256v256h-384v256h256v256h-256v256h256v-256h128v-256h128v-256h128v-768h128v-256h-256v256zM128 768h256v-256h256v-256h-384v256h-128v256z" />
<glyph unicode="&#xe1;" d="M768 512h-128v256h-256v256h256v256h-384v256h128v256h128v-256h256v-256h128v-768h128v-256h-256v256zM128 768h256v-256h256v-256h-384v256h-128v256zM512 2048h256v-256h-256v256z" />
<glyph unicode="&#xe2;" d="M384 2048h256v-256h128v-512h128v-768h128v-256h-256v256h-128v256h-256v256h256v256h-384v512h128v256zM128 768h256v-256h256v-256h-384v256h-128v256zM384 1536h256v256h-256v-256z" />
<glyph unicode="&#xe3;" d="M128 2048h384v-256h384v-256h-128v-256h128v-768h128v-256h-256v256h-128v256h-256v256h256v256h-384v256h256v256h-384v256zM128 768h256v-256h256v-256h-384v256h-128v256zM0 1792h128v-256h-128v256zM896 2048h128v-256h-128v256z" />
<glyph unicode="&#xe4;" d="M768 512h-128v256h-256v256h256v256h-384v256h512v-256h128v-768h128v-256h-256v256zM128 768h256v-256h256v-256h-384v256h-128v256zM256 2048h256v-256h-256v256zM768 2048h256v-256h-256v256z" />
<glyph unicode="&#xe5;" d="M256 2048h512v-256h128v-256h-128v-256h128v-768h128v-256h-256v256h-128v256h-256v256h256v256h-384v256h-128v256h128v256zM128 768h256v-256h256v-256h-384v256h-128v256zM640 1792h-256v-256h256v256z" />
<glyph unicode="&#xe6;" d="M128 1536h768v-256h128v-512h-384v-256h384v-256h-384v256h-128v-256h-384v256h-128v256h128v256h256v256h-256v256zM384 768h-128v-256h128v256zM768 1280h-128v-256h128v256z" />
<glyph unicode="&#xe7;" d="M128 1280h128v256h512v-256h128v-256h-256v256h-256v-768h256v256h256v-256h-128v-256h-256v-256h-128v256h-128v256h-128v768z" />
<glyph unicode="&#xe8;" d="M256 2048h256v-256h128v-256h128v-256h128v-512h-512v-256h384v-256h-512v256h-128v768h128v256h256v256h-256v256zM640 1280h-256v-256h256v256z" />
<glyph unicode="&#xe9;" d="M384 1792h128v-256h256v-256h128v-512h-512v-256h384v-256h-512v256h-128v768h128v256h128v256zM512 2048h256v-256h-256v256zM640 1280h-256v-256h256v256z" />
<glyph unicode="&#xea;" d="M384 2048h256v-256h128v-512h128v-512h-512v-256h384v-256h-512v256h-128v768h128v512h128v256zM640 1280h-256v-256h256v256zM384 1536h256v256h-256v-256z" />
<glyph unicode="&#xeb;" d="M256 1536h512v-256h128v-512h-512v-256h384v-256h-512v256h-128v768h128v256zM640 2048h256v-256h-256v256zM640 1280h-256v-256h256v256zM128 2048h256v-256h-256v256z" />
<glyph unicode="&#xec;" d="M256 2048h256v-256h128v-1280h128v-256h-512v256h128v768h-128v256h256v256h-256v256z" />
<glyph unicode="&#xed;" d="M256 1536h128v256h128v-256h128v-1024h128v-256h-512v256h128v768h-128v256zM512 2048h256v-256h-256v256z" />
<glyph unicode="&#xee;" d="M256 1792h128v-256h256v-1024h128v-256h-512v256h128v768h-128v512zM384 2048h256v-256h128v-256h-128v256h-256v256z" />
<glyph unicode="&#xef;" d="M256 1536h384v-1024h128v-256h-512v256h128v768h-128v256zM640 2048h256v-256h-256v256zM128 2048h256v-256h-256v256z" />
<glyph unicode="&#xf0;" d="M128 512h-128v512h128v256h256v256h-384v256h128v256h256v-256h384v-256h-128v-256h128v-256h128v-512h-128v-256h-640v256zM640 1024h-384v-512h384v512z" />
<glyph unicode="&#xf1;" d="M128 256v1280h-128v256h128v-256h384v256h-384v256h384v-256h384v-256h-128v-256h128v-1024h-256v1024h-256v-1024h-256zM896 2048h128v-256h-128v256z" />
<glyph unicode="&#xf2;" d="M256 2048h256v-256h128v-256h128v-256h128v-768h-128v-256h-512v256h-128v768h128v256h256v256h-256v256zM640 1280h-256v-768h256v768z" />
<glyph unicode="&#xf3;" d="M128 1280h128v256h128v256h128v-256h256v-256h128v-768h-128v-256h-512v256h-128v768zM640 1280h-256v-768h256v768zM512 2048h256v-256h-256v256z" />
<glyph unicode="&#xf4;" d="M384 2048h256v-256h128v-512h128v-768h-128v-256h-512v256h-128v768h128v512h128v256zM640 1280h-256v-768h256v768zM384 1536h256v256h-256v-256z" />
<glyph unicode="&#xf5;" d="M128 1280h128v256h256v256h384v-256h-128v-256h128v-768h-128v-256h-512v256h-128v768zM640 1280h-256v-768h256v768zM128 2048h384v-256h-384v256zM0 1792h128v-256h-128v256zM896 2048h128v-256h-128v256z" />
<glyph unicode="&#xf6;" d="M128 1280h128v256h512v-256h128v-768h-128v-256h-512v256h-128v768zM640 1280h-256v-768h256v768zM128 2048h256v-256h-256v256zM640 2048h256v-256h-256v256z" />
<glyph unicode="&#xf7;" d="M128 1280h768v-256h-768v256zM384 768h256v-256h-256v256zM384 1792h256v-256h-256v256z" />
<glyph unicode="&#xf8;" d="M256 1280v256h640v-256h128v-768h-128v-256h-640v256h-128v768h128zM640 1280h-256v-512h128v-256h256v512h-128v256zM896 1792h128v-256h-128v256zM128 256h128v-256h-128v256zM512 1024h128v-256h-128v256z" />
<glyph unicode="&#xf9;" d="M256 2048h256v-256h128v-256h256v-1024h128v-256h-256v256h-128v1024h-128v256h-256v256zM128 1536h256v-1024h256v-256h-384v256h-128v1024z" />
<glyph unicode="&#xfa;" d="M128 1536h256v-1024h256v-256h-384v256h-128v1024zM640 1536h256v-1024h128v-256h-256v256h-128v1024zM512 2048h256v-256h-256v256zM384 1792h128v-256h-128v256z" />
<glyph unicode="&#xfb;" d="M384 2048h256v-256h128v-256h128v-1024h128v-256h-256v256h-128v1280h-256v256zM128 1536h128v256h128v-1280h256v-256h-384v256h-128v1024z" />
<glyph unicode="&#xfc;" d="M128 1536h256v-1024h256v-256h-384v256h-128v1024zM640 1536h256v-1024h128v-256h-256v256h-128v1024zM128 2048h256v-256h-256v256zM640 2048h256v-256h-256v256z" />
<glyph unicode="&#xfd;" d="M640 1536h256v-768h-128v-256h-128v-256h-128v-256h-384v256h256v256h-128v256h-128v768h256v-768h256v768zM512 2048h256v-256h-256v256zM384 1792h128v-256h-128v256z" />
<glyph unicode="&#xfe;" d="M384 256h128v-256h-512v256h128v1536h-128v256h512v-256h-128v-256h512v-256h128v-512h-128v-256h-512v-256zM768 1280h-384v-512h384v512z" />
<glyph unicode="&#xff;" d="M640 1536h256v-768h-128v-256h-128v-256h-128v-256h-384v256h256v256h-128v256h-128v768h256v-768h256v768zM128 2048h256v-256h-256v256zM640 2048h256v-256h-256v256z" />
<glyph unicode="&#x152;" horiz-adv-x="2048" d="M1408 512h256v256h256v-512h-896v256h128v1280h-128v256h896v-512h-256v256h-256v-512h256v-256h-256v-512zM256 512h-128v256h-128v768h128v256h128v256h384v-256h128v-256h128v-768h-128v-256h-128v-256h-384v256zM512 768h128v768h-128v256h-128v-256h-128v-768h128 v-256h128v256z" />
<glyph unicode="&#x153;" horiz-adv-x="2048" d="M1280 1536h512v-256h128v-512h-512v-256h384v-256h-512v256h-128v768h128v256zM1664 1280h-256v-256h256v256zM128 1280h128v256h512v-256h128v-768h-128v-256h-512v256h-128v768zM640 1280h-256v-768h256v768z" />
<glyph unicode="&#x178;" d="M128 2427h256v-256h-256v256zM640 2427h256v-256h-256v256zM256 1280h-128v256h-128v512h256v-512h128v-256h256v256h128v512h256v-512h-128v-256h-128v-256h-128v-512h128v-256h-512v256h128v512h-128v256z" />
<glyph unicode="&#x2c6;" d="M640 1268h-128v256h-128v-256h-128v-244h-256v244h128v256h128v256h128v256h128v-256h128v-256h128v-256h128v-256h-256v256z" />
<glyph unicode="&#x2dc;" d="M-320 635h384v-256h256v-256h-384v256h-256v256zM320 635h128v-256h-128v256zM-448 379h128v-256h-128v256z" />
<glyph unicode="&#x2000;" horiz-adv-x="1213" />
<glyph unicode="&#x2001;" horiz-adv-x="2426" />
<glyph unicode="&#x2002;" horiz-adv-x="1213" />
<glyph unicode="&#x2003;" horiz-adv-x="2426" />
<glyph unicode="&#x2004;" horiz-adv-x="808" />
<glyph unicode="&#x2005;" horiz-adv-x="606" />
<glyph unicode="&#x2006;" horiz-adv-x="404" />
<glyph unicode="&#x2007;" horiz-adv-x="404" />
<glyph unicode="&#x2008;" horiz-adv-x="303" />
<glyph unicode="&#x2009;" horiz-adv-x="485" />
<glyph unicode="&#x200a;" horiz-adv-x="134" />
<glyph unicode="&#x2010;" d="M0 1280h1024v-256h-1024v256z" />
<glyph unicode="&#x2011;" d="M0 1280h1024v-256h-1024v256z" />
<glyph unicode="&#x2012;" d="M0 1280h1024v-256h-1024v256z" />
<glyph unicode="&#x2013;" d="M0 1024v256h1024v-256h-1024z" />
<glyph unicode="&#x2014;" horiz-adv-x="2048" d="M0 1024v256h2048v-256h-2048z" />
<glyph unicode="&#x2018;" d="M384 2048h256v-512h128v-256h-256v256h-128v512z" />
<glyph unicode="&#x2019;" d="M256 1536h128v512h256v-512h-128v-256h-256v256z" />
<glyph unicode="&#x201c;" d="M128 2048h256v-512h-256v512zM512 2048h256v-512h-256v512z" />
<glyph unicode="&#x201d;" d="M128 2048h256v-512h-256v512zM512 2048h256v-512h-256v512z" />
<glyph unicode="&#x2026;" horiz-adv-x="3072" d="M2432 768h256v-512h-256v512zM1408 768h256v-512h-256v512zM384 768h256v-512h-256v512z" />
<glyph unicode="&#x202f;" horiz-adv-x="485" />
<glyph unicode="&#x2039;" d="M640 1280v-256h128v-256h128v-256h128v-256h-256v256h-128v256h-128v256h-128v256h128v256h128v256h128v256h256v-256h-128v-256h-128v-256h-128z" />
<glyph unicode="&#x203a;" d="M384 1280h-128v256h-128v256h-128v256h256v-256h128v-256h128v-256h128v-256h-128v-256h-128v-256h-128v-256h-256v256h128v256h128v256h128v256z" />
<glyph unicode="&#x205f;" horiz-adv-x="606" />
<glyph unicode="&#x2122;" horiz-adv-x="2048" d="M1408 1024h-128v-768h-256v1792h128v-256h128v-256h128v-256h128v256h128v256h128v256h128v-1792h-256v768h-128v-256h-128v256zM256 512h128v1280h-128v-256h-128v512h768v-512h-128v256h-128v-1280h128v-256h-512v256z" />
<glyph unicode="&#xe000;" horiz-adv-x="1535" d="M0 1535h1535v-1535h-1535v1535z" />
<glyph unicode="&#xfb01;" horiz-adv-x="2048" d="M1280 1536h384v-1024h128v-256h-512v256h128v768h-128v256zM1408 2048h256v-256h-256v256zM128 1280h128v512h128v256h384v-256h128v-256h-256v256h-128v-512h128v-256h-128v-512h128v-256h-512v256h128v512h-128v256z" />
<glyph unicode="&#xfb02;" horiz-adv-x="2048" d="M1280 2048h384v-1536h128v-256h-512v256h128v1280h-128v256zM128 1280h128v512h128v256h384v-256h128v-256h-256v256h-128v-512h128v-256h-128v-512h128v-256h-512v256h128v512h-128v256z" />
<glyph unicode="&#xfb03;" horiz-adv-x="3072" d="M2304 1536h384v-1024h128v-256h-512v256h128v768h-128v256zM2432 2048h256v-256h-256v256zM1152 1280h128v512h128v256h384v-256h128v-256h-256v256h-128v-512h128v-256h-128v-512h128v-256h-512v256h128v512h-128v256zM128 1280h128v512h128v256h384v-256h128v-256h-256 v256h-128v-512h128v-256h-128v-512h128v-256h-512v256h128v512h-128v256z" />
<glyph unicode="&#xfb04;" horiz-adv-x="3072" d="M2304 2048h384v-1536h128v-256h-512v256h128v1280h-128v256zM1152 1280h128v512h128v256h384v-256h128v-256h-256v256h-128v-512h128v-256h-128v-512h128v-256h-512v256h128v512h-128v256zM128 1280h128v512h128v256h384v-256h128v-256h-256v256h-128v-512h128v-256h-128 v-512h128v-256h-512v256h128v512h-128v256z" />
</font>
</defs>
</svg>
